<svg xmlns="http://www.w3.org/2000/svg" xmlns:xlink="http://www.w3.org/1999/xlink" width="500" zoomAndPan="magnify" viewBox="0 0 375 374.999991" height="500" preserveAspectRatio="xMidYMid meet" version="1.0"><defs><g/><clipPath id="70f291f077"><path d="M 18.15625 75.050781 L 357.15625 75.050781 L 357.15625 252 L 18.15625 252 Z M 18.15625 75.050781 " clip-rule="nonzero"/></clipPath></defs><rect x="-37.5" width="450" fill="#ffffff" y="-37.499999" height="449.999989" fill-opacity="1"/><rect x="-37.5" width="450" fill="#ffffff" y="-37.499999" height="449.999989" fill-opacity="1"/><g clip-path="url(#70f291f077)"><path fill="#202b33" d="M 274.421875 89.171875 C 237.882812 89.171875 206.808594 112.953125 195.917969 145.8125 C 202.617188 107 236.59375 77.386719 277.371094 77.386719 C 287.191406 77.386719 296.613281 79.109375 305.363281 82.253906 C 294.511719 77.527344 282.535156 74.898438 269.9375 74.898438 C 233.734375 74.898438 202.605469 96.574219 188.867188 127.632812 C 188.433594 128.914062 188.035156 130.222656 187.65625 131.539062 C 187.277344 130.222656 186.875 128.914062 186.441406 127.632812 C 172.710938 96.574219 141.582031 74.898438 105.371094 74.898438 C 92.773438 74.898438 80.796875 77.527344 69.949219 82.261719 C 78.691406 79.109375 88.117188 77.390625 97.9375 77.390625 C 138.71875 77.390625 172.691406 107.007812 179.394531 145.8125 C 168.503906 112.953125 137.429688 89.171875 100.886719 89.171875 C 55.308594 89.171875 18.226562 126.164062 18.226562 171.640625 C 18.226562 171.683594 18.226562 171.714844 18.226562 171.757812 C 18.238281 179.066406 19.546875 186.328125 22.027344 193.210938 C 34.320312 227.277344 67 251.632812 105.371094 251.632812 C 124.042969 251.632812 141.367188 245.863281 155.644531 236.019531 C 148 240.550781 139.503906 243.921875 130.320312 245.832031 C 90.402344 254.121094 51.085938 232.035156 36.589844 195.410156 C 53.96875 225.363281 89.25 242.320312 125.027344 234.890625 C 156.101562 228.433594 179.460938 205.253906 187.65625 176.742188 C 195.847656 205.253906 219.210938 228.433594 250.285156 234.890625 C 286.058594 242.328125 321.34375 225.371094 338.71875 195.410156 C 324.222656 232.035156 284.90625 254.121094 244.984375 245.824219 C 235.808594 243.917969 227.300781 240.542969 219.65625 236.011719 C 233.9375 245.859375 251.257812 251.625 269.929688 251.625 C 308.308594 251.625 340.984375 227.269531 353.277344 193.203125 C 355.757812 186.328125 357.066406 179.066406 357.078125 171.75 C 357.078125 171.710938 357.078125 171.675781 357.078125 171.636719 C 357.085938 126.164062 320 89.171875 274.421875 89.171875 Z M 268.925781 110.253906 C 299.074219 109.699219 323.625 134.191406 323.070312 164.273438 C 322.542969 192.617188 299.355469 215.75 270.945312 216.277344 C 240.800781 216.828125 216.25 192.339844 216.804688 162.257812 C 217.332031 133.90625 240.511719 110.78125 268.925781 110.253906 Z M 158.507812 162.257812 C 159.0625 192.332031 134.515625 216.828125 104.363281 216.277344 C 75.953125 215.75 52.769531 192.617188 52.238281 164.273438 C 51.683594 134.195312 76.230469 109.699219 106.382812 110.253906 C 134.792969 110.78125 157.976562 133.90625 158.507812 162.257812 Z M 158.507812 162.257812 " fill-opacity="1" fill-rule="nonzero"/></g><path fill="#1e2123" d="M 242.957031 138.632812 C 252.8125 134.046875 264.894531 135.8125 273.027344 143.925781 C 283.417969 154.292969 283.417969 171.109375 273.027344 181.472656 C 262.636719 191.839844 245.78125 191.839844 235.394531 181.472656 C 227.261719 173.359375 225.492188 161.304688 230.085938 151.472656 C 230.566406 152.972656 231.394531 154.394531 232.59375 155.582031 C 236.59375 159.574219 243.078125 159.574219 247.078125 155.582031 C 251.074219 151.59375 251.074219 145.125 247.078125 141.132812 C 245.886719 139.9375 244.460938 139.113281 242.957031 138.632812 Z M 112.3125 141.492188 C 116.3125 145.480469 116.3125 151.953125 112.3125 155.941406 C 108.3125 159.929688 101.828125 159.929688 97.828125 155.941406 C 96.636719 154.75 95.804688 153.332031 95.324219 151.832031 C 90.726562 161.664062 92.496094 173.71875 100.628906 181.832031 C 111.019531 192.199219 127.875 192.199219 138.261719 181.832031 C 148.652344 171.464844 148.652344 154.648438 138.261719 144.285156 C 130.128906 136.171875 118.046875 134.40625 108.191406 138.992188 C 109.695312 139.46875 111.121094 140.300781 112.3125 141.492188 Z M 112.3125 141.492188 " fill-opacity="1" fill-rule="nonzero"/><g fill="#202b33" fill-opacity="1"><g transform="translate(-2.839011, 319.124888)"><g><path d="M 35.8125 -36.8125 L 1.660156 -36.8125 L 1.660156 -28.066406 L 13.175781 -28.066406 L 13.175781 0 L 24.300781 0 L 24.300781 -28.066406 L 35.8125 -28.066406 Z M 35.8125 -36.8125 "/></g></g></g><g fill="#202b33" fill-opacity="1"><g transform="translate(33.524934, 319.124888)"><g><path d="M 17.492188 -6.253906 C 14.449219 -6.253906 12.675781 -7.582031 12.121094 -11.125 L 32.492188 -11.125 C 32.605469 -11.679688 32.660156 -12.566406 32.660156 -13.507812 C 32.660156 -21.144531 29.394531 -28.5625 17.269531 -28.5625 C 6.253906 -28.5625 1.550781 -21.863281 1.550781 -13.894531 C 1.550781 -6.476562 5.535156 0.886719 17.269531 0.886719 C 27.457031 0.886719 31.496094 -3.265625 32.546875 -8.359375 L 21.921875 -8.359375 C 21.144531 -7.085938 19.59375 -6.253906 17.492188 -6.253906 Z M 17.4375 -21.589844 C 20.703125 -21.589844 22.085938 -19.984375 22.417969 -17.105469 L 12.179688 -17.105469 C 12.785156 -20.425781 14.390625 -21.589844 17.4375 -21.589844 Z M 17.4375 -21.589844 "/></g></g></g><g fill="#202b33" fill-opacity="1"><g transform="translate(66.623296, 319.124888)"><g><path d="M 10.960938 0.71875 C 16.441406 0.71875 20.039062 -1.382812 21.476562 -5.589844 C 21.476562 -3.265625 21.699219 -1.4375 21.976562 0 L 31.21875 0 C 30.886719 -2.160156 30.667969 -4.871094 30.667969 -8.082031 L 30.667969 -18.210938 C 30.667969 -24.910156 26.183594 -28.5625 17.050781 -28.5625 C 8.027344 -28.5625 2.65625 -24.191406 2.324219 -18.265625 L 12.785156 -18.265625 C 12.785156 -20.371094 14.171875 -21.53125 17.105469 -21.53125 C 19.761719 -21.53125 20.648438 -20.757812 20.648438 -19.375 C 20.648438 -18.101562 20.148438 -17.492188 17.65625 -17.050781 L 11.570312 -15.996094 C 3.488281 -14.613281 1.769531 -11.679688 1.769531 -7.25 C 1.769531 -2.4375 5.480469 0.71875 10.960938 0.71875 Z M 15.386719 -6.144531 C 13.785156 -6.144531 12.398438 -6.976562 12.398438 -8.691406 C 12.398438 -10.351562 13.230469 -11.125 15.664062 -11.789062 L 16.496094 -12.011719 C 18.265625 -12.453125 19.320312 -12.730469 20.648438 -13.671875 L 20.648438 -12.84375 C 20.648438 -8.082031 18.210938 -6.144531 15.386719 -6.144531 Z M 15.386719 -6.144531 "/></g></g></g><g fill="#202b33" fill-opacity="1"><g transform="translate(98.836074, 319.124888)"><g><path d="M 1.550781 -13.839844 C 1.550781 -6.585938 5.703125 0.886719 17.878906 0.886719 C 28.671875 0.886719 33.324219 -5.3125 33.488281 -12.066406 L 22.75 -12.066406 C 22.527344 -9.355469 21.089844 -7.527344 17.65625 -7.527344 C 14.171875 -7.527344 12.398438 -9.023438 12.398438 -13.839844 C 12.398438 -18.65625 14.335938 -20.148438 17.824219 -20.148438 C 20.980469 -20.148438 22.527344 -18.65625 22.695312 -15.554688 L 33.433594 -15.554688 C 33.269531 -22.640625 28.230469 -28.5625 17.714844 -28.5625 C 5.535156 -28.5625 1.550781 -21.035156 1.550781 -13.839844 Z M 1.550781 -13.839844 "/></g></g></g><g fill="#202b33" fill-opacity="1"><g transform="translate(132.598615, 319.124888)"><g><path d="M 23.25 -28.5625 C 18.433594 -28.5625 15.222656 -26.402344 13.339844 -22.917969 L 13.339844 -38.746094 L 2.492188 -38.746094 L 2.492188 0 L 13.339844 0 L 13.339844 -13.449219 C 13.339844 -17.769531 15.277344 -19.816406 18.542969 -19.816406 C 21.808594 -19.816406 22.917969 -17.65625 22.917969 -14.667969 L 22.917969 0 L 33.765625 0 L 33.765625 -16.660156 C 33.765625 -23.914062 30.445312 -28.5625 23.25 -28.5625 Z M 23.25 -28.5625 "/></g></g></g><g fill="#202b33" fill-opacity="1"><g transform="translate(167.578848, 319.124888)"><g><path d="M 17.492188 -6.253906 C 14.449219 -6.253906 12.675781 -7.582031 12.121094 -11.125 L 32.492188 -11.125 C 32.605469 -11.679688 32.660156 -12.566406 32.660156 -13.507812 C 32.660156 -21.144531 29.394531 -28.5625 17.269531 -28.5625 C 6.253906 -28.5625 1.550781 -21.863281 1.550781 -13.894531 C 1.550781 -6.476562 5.535156 0.886719 17.269531 0.886719 C 27.457031 0.886719 31.496094 -3.265625 32.546875 -8.359375 L 21.921875 -8.359375 C 21.144531 -7.085938 19.59375 -6.253906 17.492188 -6.253906 Z M 17.4375 -21.589844 C 20.703125 -21.589844 22.085938 -19.984375 22.417969 -17.105469 L 12.179688 -17.105469 C 12.785156 -20.425781 14.390625 -21.589844 17.4375 -21.589844 Z M 17.4375 -21.589844 "/></g></g></g><g fill="#202b33" fill-opacity="1"><g transform="translate(200.677203, 319.124888)"><g><path d="M 20.148438 -28.121094 C 15.886719 -28.121094 13.894531 -26.238281 12.953125 -22.308594 L 12.953125 -27.675781 L 2.492188 -27.675781 L 2.492188 0 L 13.339844 0 L 13.339844 -11.238281 C 13.339844 -16.164062 15.332031 -17.546875 18.929688 -17.546875 L 22.972656 -17.546875 L 22.972656 -28.121094 Z M 20.148438 -28.121094 "/></g></g></g><g fill="#202b33" fill-opacity="1"><g transform="translate(223.31462, 319.124888)"><g/></g></g><g fill="#202b33" fill-opacity="1"><g transform="translate(236.598077, 319.124888)"><g><path d="M 35.8125 -36.8125 L 1.660156 -36.8125 L 1.660156 -28.066406 L 13.175781 -28.066406 L 13.175781 0 L 24.300781 0 L 24.300781 -28.066406 L 35.8125 -28.066406 Z M 35.8125 -36.8125 "/></g></g></g><g fill="#202b33" fill-opacity="1"><g transform="translate(272.962025, 319.124888)"><g><path d="M 22.75 -27.675781 L 22.75 -14.226562 C 22.75 -9.910156 20.8125 -7.859375 17.546875 -7.859375 C 14.28125 -7.859375 13.175781 -10.019531 13.175781 -13.007812 L 13.175781 -27.675781 L 2.324219 -27.675781 L 2.324219 -11.015625 C 2.324219 -3.765625 5.757812 0.886719 12.953125 0.886719 C 17.714844 0.886719 20.925781 -1.21875 22.75 -4.707031 L 22.75 0 L 33.601562 0 L 33.601562 -27.675781 Z M 22.75 -27.675781 "/></g></g></g><g fill="#202b33" fill-opacity="1"><g transform="translate(307.942259, 319.124888)"><g><path d="M 22.75 -28.5625 C 18.210938 -28.5625 15.167969 -26.902344 13.230469 -24.191406 L 13.230469 -38.746094 L 2.378906 -38.746094 L 2.378906 0 L 13.230469 0 L 13.230469 -3.433594 C 15.167969 -0.71875 18.210938 0.886719 22.75 0.886719 C 31.9375 0.886719 35.371094 -6.035156 35.371094 -13.894531 C 35.371094 -21.476562 31.9375 -28.5625 22.75 -28.5625 Z M 18.875 -7.527344 C 14.335938 -7.527344 13.230469 -9.632812 13.230469 -13.839844 C 13.230469 -18.046875 14.335938 -20.148438 18.875 -20.148438 C 23.136719 -20.148438 24.523438 -18.433594 24.523438 -13.839844 C 24.523438 -9.246094 23.136719 -7.527344 18.875 -7.527344 Z M 18.875 -7.527344 "/></g></g></g><g fill="#202b33" fill-opacity="1"><g transform="translate(343.64201, 319.124888)"><g><path d="M 17.492188 -6.253906 C 14.449219 -6.253906 12.675781 -7.582031 12.121094 -11.125 L 32.492188 -11.125 C 32.605469 -11.679688 32.660156 -12.566406 32.660156 -13.507812 C 32.660156 -21.144531 29.394531 -28.5625 17.269531 -28.5625 C 6.253906 -28.5625 1.550781 -21.863281 1.550781 -13.894531 C 1.550781 -6.476562 5.535156 0.886719 17.269531 0.886719 C 27.457031 0.886719 31.496094 -3.265625 32.546875 -8.359375 L 21.921875 -8.359375 C 21.144531 -7.085938 19.59375 -6.253906 17.492188 -6.253906 Z M 17.4375 -21.589844 C 20.703125 -21.589844 22.085938 -19.984375 22.417969 -17.105469 L 12.179688 -17.105469 C 12.785156 -20.425781 14.390625 -21.589844 17.4375 -21.589844 Z M 17.4375 -21.589844 "/></g></g></g></svg>